<svg width="45" height="43" viewBox="0 0 45 43" fill="none" xmlns="http://www.w3.org/2000/svg">
<path d="M45 18.2591C45 8.19116 34.9067 0 22.5 0C10.0943 0 0 8.19116 0 18.2591C0 27.2851 8.00456 34.8443 18.8171 36.2733C19.5497 36.4316 20.5473 36.7565 20.7994 37.3829C21.0262 37.9515 20.9479 38.8427 20.8722 39.4173C20.8722 39.4173 20.6083 41.005 20.551 41.3435C20.4529 41.912 20.0988 43.5682 22.5 42.5565C24.9016 41.5445 35.4575 34.9265 40.1781 29.4934H40.1771C43.4377 25.9173 45 22.2884 45 18.2591Z" fill="#A78144"/>
<path d="M37.515 24.0727H31.1937C30.9565 24.0727 30.7642 23.8804 30.7642 23.6432V13.8236C30.7642 13.5863 30.9565 13.394 31.1937 13.394H37.515C37.7513 13.394 37.9447 13.5873 37.9447 13.8236V15.4193C37.9447 15.6565 37.7523 15.8489 37.515 15.8489H33.219V17.5059H37.515C37.7513 17.5059 37.9447 17.6993 37.9447 17.9356V19.5312C37.9447 19.7685 37.7523 19.9609 37.515 19.9609H33.219V21.6179H37.515C37.7513 21.6179 37.9447 21.8112 37.9447 22.0474V23.6432C37.9447 23.8804 37.7523 24.0727 37.515 24.0727Z" fill="white"/>
<path d="M14.132 24.0737C14.3693 24.0737 14.5616 23.8814 14.5616 23.6441V22.0484C14.5616 21.8122 14.3683 21.6188 14.132 21.6188H9.83597V13.8246C9.83597 13.5883 9.64263 13.395 9.40639 13.395H7.81069C7.5734 13.395 7.3811 13.5873 7.3811 13.8246V23.6441C7.3811 23.8814 7.5734 24.0737 7.81069 24.0737H14.132Z" fill="white"/>
<path d="M17.9374 13.394H16.3417C16.1044 13.394 15.9121 13.5864 15.9121 13.8236V23.6432C15.9121 23.8805 16.1044 24.0728 16.3417 24.0728H17.9374C18.1746 24.0728 18.367 23.8805 18.367 23.6432V13.8236C18.367 13.5864 18.1746 13.394 17.9374 13.394Z" fill="white"/>
<path d="M28.8003 13.394H27.2046C26.9674 13.394 26.7751 13.5864 26.7751 13.8236V19.6559L22.2823 13.5886C22.2719 13.573 22.2602 13.5583 22.2478 13.5442C22.247 13.5432 22.246 13.5422 22.245 13.5411C22.2367 13.5318 22.2282 13.5229 22.2191 13.5143C22.2165 13.5119 22.2138 13.5095 22.2111 13.507C22.2035 13.5002 22.1958 13.4936 22.1878 13.4873C22.1839 13.4843 22.1801 13.4815 22.1761 13.4786C22.1688 13.4732 22.1612 13.468 22.1534 13.463C22.1491 13.4602 22.1447 13.4576 22.1403 13.455C22.1324 13.4504 22.1246 13.446 22.1165 13.4419C22.1121 13.4396 22.1075 13.4375 22.1029 13.4353C22.0946 13.4315 22.0863 13.4279 22.0778 13.4245C22.0731 13.4228 22.0685 13.4211 22.0638 13.4194C22.0552 13.4164 22.0465 13.4136 22.0377 13.411C22.0327 13.4096 22.0276 13.4084 22.0225 13.4071C22.014 13.4051 22.0056 13.4031 21.997 13.4016C21.9909 13.4005 21.9848 13.3996 21.9787 13.3988C21.971 13.3977 21.9633 13.3966 21.9555 13.3959C21.9478 13.3953 21.9403 13.395 21.9325 13.3948C21.9277 13.3946 21.9228 13.394 21.9178 13.394H20.3309C20.0937 13.394 19.9014 13.5864 19.9014 13.8236V23.6432C19.9014 23.8804 20.0937 24.0728 20.3309 24.0728H21.9266C22.1639 24.0728 22.3562 23.8804 22.3562 23.6432V17.8127L26.8546 23.8877C26.8856 23.9315 26.9234 23.9673 26.9654 23.9959C26.967 23.997 26.9687 23.9982 26.9704 23.9993C26.9792 24.0051 26.9882 24.0106 26.9974 24.0157C27.0014 24.018 27.0056 24.0204 27.0099 24.0226C27.0167 24.0261 27.0236 24.0294 27.0307 24.0326C27.0377 24.0358 27.0446 24.0388 27.0517 24.0417C27.0562 24.0434 27.0608 24.0451 27.0654 24.0467C27.0751 24.0501 27.0849 24.0534 27.095 24.0561C27.097 24.0567 27.0991 24.0572 27.1011 24.0578C27.137 24.0672 27.1746 24.0728 27.2134 24.0728H28.8003C29.0376 24.0728 29.2299 23.8804 29.2299 23.6432V13.8236C29.2299 13.5864 29.0376 13.394 28.8003 13.394Z" fill="white"/>
</svg>
