<svg width="24" height="24" viewBox="0 0 24 24" fill="none" xmlns="http://www.w3.org/2000/svg">
<circle cx="12" cy="12" r="12" fill="#A78144"/>
<path d="M11.7096 14.6627C11.5466 14.6627 11.3999 14.6034 11.2695 14.4848C11.1472 14.3662 11.0779 14.2222 11.0616 14.0528L11.0005 12.7822C10.9842 12.3587 11.0453 12.0156 11.1839 11.753C11.3224 11.4904 11.6363 11.266 12.1254 11.0796C12.5085 10.9356 12.7897 10.7408 12.969 10.4951C13.1565 10.2495 13.2503 9.93185 13.2503 9.5422C13.2503 9.04244 13.1117 8.64432 12.8345 8.34785C12.5574 8.05138 12.1824 7.90315 11.7096 7.90315C11.3102 7.90315 10.9638 8.02597 10.6703 8.27162C10.385 8.50879 10.1975 8.8222 10.1079 9.21185C10.0508 9.44056 9.92038 9.6142 9.71659 9.73279C9.51281 9.84291 9.29679 9.86832 9.06855 9.80903C8.84846 9.74126 8.68543 9.60997 8.57946 9.41515C8.47349 9.21185 8.44496 8.99162 8.49387 8.75444C8.59984 8.29703 8.79955 7.89044 9.09301 7.53467C9.39461 7.17044 9.7655 6.88244 10.2057 6.67067C10.654 6.45891 11.1553 6.35303 11.7096 6.35303C12.3455 6.35303 12.9079 6.48009 13.397 6.7342C13.8861 6.98832 14.2692 7.35679 14.5464 7.83962C14.8317 8.31397 14.9743 8.8815 14.9743 9.5422C14.9743 10.2283 14.7787 10.7959 14.3874 11.2448C14.0043 11.6937 13.507 12.0283 12.8957 12.2486C12.6919 12.3248 12.5574 12.4095 12.4922 12.5027C12.427 12.5874 12.3903 12.7399 12.3821 12.9601L12.3455 14.0528C12.3373 14.2222 12.268 14.3662 12.1376 14.4848C12.0153 14.6034 11.8727 14.6627 11.7096 14.6627ZM11.7096 17.5596C11.4243 17.5596 11.1798 17.4537 10.976 17.242C10.7722 17.0302 10.6703 16.7761 10.6703 16.4796C10.6703 16.1831 10.7722 15.929 10.976 15.7173C11.1798 15.5055 11.4243 15.3996 11.7096 15.3996C11.9949 15.3996 12.2395 15.5055 12.4433 15.7173C12.6471 15.929 12.7489 16.1831 12.7489 16.4796C12.7489 16.7761 12.6471 17.0302 12.4433 17.242C12.2395 17.4537 11.9949 17.5596 11.7096 17.5596Z" fill="white"/>
</svg>
