<svg width="18" height="18" viewBox="0 0 18 18" fill="none" xmlns="http://www.w3.org/2000/svg">
<path d="M9 0C13.9627 0 18 3.27653 18 7.30371C18 8.81476 17.451 10.1852 16.3076 11.5293L16.0713 11.7979C14.183 13.971 9.96075 16.6176 9 17.0225C8.04011 17.4269 8.18135 16.7659 8.2207 16.5381C8.24323 16.4049 8.34533 15.7875 8.34863 15.7676C8.37889 15.5377 8.41105 15.1806 8.32031 14.9531C8.2195 14.7027 7.82033 14.5731 7.52734 14.5098C3.20227 13.9382 0 10.9141 0 7.30371C4.56655e-05 3.27654 4.03776 2.59265e-05 9 0ZM3.12402 5.3584C3.02923 5.35853 2.95215 5.43544 2.95215 5.53027V9.45801C2.95231 9.5527 3.02933 9.62975 3.12402 9.62988H5.65332C5.74788 9.62962 5.82405 9.55262 5.82422 9.45801V8.81934C5.82417 8.72504 5.74758 8.64772 5.65332 8.64746H3.93457V5.53027C3.93457 5.43579 3.85713 5.35847 3.7627 5.3584H3.12402ZM6.53711 5.35742C6.44231 5.35742 6.3654 5.43454 6.36523 5.5293V9.45703C6.36523 9.55193 6.44221 9.62891 6.53711 9.62891H7.1748C7.26971 9.62891 7.34668 9.55193 7.34668 9.45703V5.5293C7.34651 5.43454 7.2696 5.35742 7.1748 5.35742H6.53711ZM8.13281 5.35742C8.03803 5.35742 7.9611 5.43455 7.96094 5.5293V9.45703C7.96094 9.55192 8.03793 9.62891 8.13281 9.62891H8.77051C8.86542 9.62891 8.94238 9.55192 8.94238 9.45703V7.125L10.7422 9.55566C10.7545 9.573 10.7695 9.58731 10.7861 9.59863L10.7881 9.59961C10.7915 9.60191 10.7952 9.60442 10.7988 9.60645C10.8004 9.60734 10.8021 9.60852 10.8037 9.60938C10.8064 9.6108 10.8097 9.61201 10.8125 9.61328C10.8152 9.61449 10.8176 9.6161 10.8203 9.61719L10.8379 9.62305H10.8408C10.8551 9.6268 10.8703 9.62891 10.8857 9.62891H11.5205C11.6153 9.62876 11.6924 9.55183 11.6924 9.45703V5.5293C11.6922 5.43464 11.6152 5.35757 11.5205 5.35742H10.8818C10.7871 5.35748 10.7101 5.43459 10.71 5.5293V7.8623L8.91309 5.43555C8.90896 5.42937 8.90431 5.42356 8.89941 5.41797L8.88477 5.40332L8.87012 5.3916C8.8673 5.38954 8.86431 5.38766 8.86133 5.38574C8.85961 5.38464 8.85819 5.38286 8.85645 5.38184L8.84082 5.37402C8.83767 5.37257 8.8343 5.37141 8.83105 5.37012C8.82921 5.36943 8.82704 5.36883 8.8252 5.36816C8.82189 5.36702 8.81881 5.36523 8.81543 5.36426C8.81341 5.36369 8.81062 5.36377 8.80859 5.36328C8.80533 5.36249 8.80214 5.36095 8.79883 5.36035C8.79656 5.35994 8.79426 5.35969 8.79199 5.35938C8.78891 5.35893 8.78534 5.35866 8.78223 5.3584C8.7793 5.35815 8.77638 5.35847 8.77344 5.3584C8.77161 5.35833 8.76944 5.35745 8.76758 5.35742H8.13281ZM12.4775 5.35742C12.3827 5.35744 12.3058 5.43455 12.3057 5.5293V9.45703C12.3057 9.55193 12.3826 9.62889 12.4775 9.62891H15.0059C15.1008 9.62891 15.1777 9.55194 15.1777 9.45703V8.81934C15.1777 8.72484 15.1004 8.64746 15.0059 8.64746H13.2881V7.98438H15.0059C15.1008 7.98438 15.1777 7.90741 15.1777 7.8125V7.1748C15.1777 7.08028 15.1004 7.00293 15.0059 7.00293H13.2881V6.33984H15.0059C15.1007 6.33984 15.1777 6.26284 15.1777 6.16797V5.5293C15.1776 5.43492 15.1003 5.35742 15.0059 5.35742H12.4775Z" fill="white"/>
</svg>
