<svg width="20" height="20" viewBox="0 0 20 20" fill="none" xmlns="http://www.w3.org/2000/svg">
<path d="M20.0041 8.11681C20.0041 3.64125 15.5172 0 10.002 0C4.48728 0 0 3.64125 0 8.11681C0 12.1292 3.5583 15.4895 8.36488 16.1247C8.69054 16.1951 9.13398 16.3395 9.24606 16.618C9.3469 16.8708 9.31207 17.267 9.27844 17.5224C9.27844 17.5224 9.16109 18.2281 9.13565 18.3786C9.09203 18.6313 8.9346 19.3676 10.002 18.9178C11.0696 18.468 15.7621 15.5261 17.8606 13.1108H17.8601C19.3096 11.5211 20.0041 9.90798 20.0041 8.11681Z" fill="#06C755"/>
<path d="M16.6767 10.7011H13.8666C13.7611 10.7011 13.6757 10.6157 13.6757 10.5102V6.14507C13.6757 6.03959 13.7611 5.9541 13.8666 5.9541H16.6767C16.7817 5.9541 16.8677 6.04002 16.8677 6.14507V6.85438C16.8677 6.95986 16.7821 7.04537 16.6767 7.04537H14.7669V7.78198H16.6767C16.7817 7.78198 16.8677 7.86792 16.8677 7.97297V8.68228C16.8677 8.78776 16.7821 8.87328 16.6767 8.87328H14.7669V9.60988H16.6767C16.7817 9.60988 16.8677 9.69582 16.8677 9.80084V10.5102C16.8677 10.6157 16.7821 10.7011 16.6767 10.7011Z" fill="white"/>
<path d="M6.28216 10.7016C6.38761 10.7016 6.47312 10.6162 6.47312 10.5107V9.80133C6.47312 9.69631 6.38718 9.61037 6.28216 9.61037H4.3724V6.14555C4.3724 6.04051 4.28646 5.95459 4.18144 5.95459H3.47209C3.36661 5.95459 3.28113 6.04007 3.28113 6.14555V10.5107C3.28113 10.6162 3.36661 10.7016 3.47209 10.7016H6.28216Z" fill="white"/>
<path d="M7.9738 5.9541H7.26445C7.15898 5.9541 7.07349 6.0396 7.07349 6.14507V10.5102C7.07349 10.6157 7.15898 10.7012 7.26445 10.7012H7.9738C8.07926 10.7012 8.16476 10.6157 8.16476 10.5102V6.14507C8.16476 6.0396 8.07926 5.9541 7.9738 5.9541Z" fill="white"/>
<path d="M12.8027 5.9541H12.0934C11.9879 5.9541 11.9024 6.03961 11.9024 6.14507V8.73772L9.90522 6.04059C9.90059 6.03365 9.89537 6.02714 9.88987 6.02086C9.8895 6.0204 9.88906 6.01997 9.88863 6.01948C9.88494 6.01536 9.88114 6.01138 9.87713 6.00758C9.87596 6.00648 9.87474 6.00542 9.87356 6.00432C9.87016 6.0013 9.86674 5.99836 9.86319 5.99556C9.86149 5.99424 9.85976 5.993 9.858 5.9917C9.85475 5.98931 9.85138 5.98698 9.84792 5.98476C9.84599 5.98352 9.84403 5.98237 9.84207 5.98121C9.83858 5.97917 9.83513 5.97721 9.83152 5.97539C9.82954 5.97436 9.82749 5.97341 9.82544 5.97245C9.82179 5.97075 9.81807 5.96914 9.8143 5.96764C9.81222 5.96686 9.81015 5.96612 9.80807 5.96537C9.80424 5.96404 9.80041 5.96277 9.79649 5.96165C9.79424 5.96102 9.79197 5.96047 9.78972 5.95992C9.78594 5.959 9.7822 5.95814 9.77837 5.95744C9.77566 5.95695 9.77295 5.95658 9.77024 5.95621C9.76681 5.95572 9.76338 5.95523 9.75993 5.95494C9.75653 5.95465 9.75316 5.95453 9.74973 5.95445C9.74757 5.95436 9.74541 5.9541 9.74319 5.9541H9.03776C8.93231 5.9541 8.8468 6.03961 8.8468 6.14507V10.5102C8.8468 10.6157 8.93231 10.7012 9.03776 10.7012H9.74711C9.85259 10.7012 9.93807 10.6157 9.93807 10.5102V7.91837L11.9377 10.6189C11.9515 10.6384 11.9683 10.6543 11.987 10.667C11.9877 10.6675 11.9885 10.668 11.9892 10.6685C11.9931 10.6711 11.9972 10.6735 12.0012 10.6758C12.003 10.6768 12.0049 10.6779 12.0068 10.6788C12.0098 10.6804 12.0129 10.6819 12.016 10.6833C12.0191 10.6847 12.0222 10.6861 12.0254 10.6873C12.0274 10.6881 12.0294 10.6888 12.0314 10.6896C12.0358 10.6911 12.0401 10.6925 12.0446 10.6938C12.0455 10.694 12.0464 10.6943 12.0473 10.6945C12.0633 10.6987 12.08 10.7012 12.0972 10.7012H12.8027C12.9082 10.7012 12.9937 10.6157 12.9937 10.5102V6.14507C12.9937 6.03961 12.9082 5.9541 12.8027 5.9541Z" fill="white"/>
</svg>
